<?xml version="1.0" encoding="utf-8"?>
<!-- Generator: Adobe Illustrator 24.0.3, SVG Export Plug-In . SVG Version: 6.00 Build 0)  -->
<svg version="1.1" id="Layer_1" xmlns="http://www.w3.org/2000/svg" xmlns:xlink="http://www.w3.org/1999/xlink" x="0px" y="0px"
	 viewBox="0 0 147.1 61.6" style="enable-background:new 0 0 147.1 61.6;" xml:space="preserve">
<style type="text/css">
	.st0{fill:#FFFFFF;}
	.st1{fill:#E64E00;}
</style>
<g>
	<g>
		<path class="st0" d="M123.1,40.8c-0.3-0.1-0.7,0.1-0.7,0.3c-0.4,1.6-1,2.5-2.3,2.4c-2.4-0.3-2.3-5.4-2.3-7.7
			c0-8.5,0.3-18.9,0.3-19.3c0-0.3-0.4-0.6-1.8-1c-0.9-0.2-1.3-0.3-1.6-0.3c-0.5,0-0.9,0.4-0.9,0.9v11.2c-1.1-1.2-2.5-1.9-4.3-2
			c-8.7-0.1-10.1,19.3-1.3,20.5c3,0.4,5.2-1.2,6.5-3.6c1,2.7,2.7,3.4,3.8,3.7c0.8,0.2,3.5-0.1,4.7-2.8
			C123.7,42.3,123.9,41,123.1,40.8z M110.4,43.5c-5.8,0-4.5-14.8,0.1-14.8c2,0,3.2,2.5,3.3,5.8C113.9,39.8,113.1,43.5,110.4,43.5z
			 M99.7,25.5c-3.5,0.6-5,5.4-5,6.1c0,0,0-4.2,0-4.2c0-0.3-0.4-0.6-1.8-0.9c-0.9-0.2-1.3-0.3-1.6-0.3c-0.5,0-0.9,0.4-0.9,0.9v10.1
			c0,0.2,0,0.3,0,0.5c-0.3,2.9-0.5,5.8-2.4,5.8c-2.5,0-1.8-5.3-1.7-7.5c0.1-7,0.3-8.6,0.3-8.6c0-0.3-0.4-0.6-1.8-0.9
			c-0.9-0.2-1.3-0.3-1.6-0.3c-0.5,0-0.9,0.4-0.9,0.9v0.7c-1.1-1.3-2.6-2.2-4.5-2.2c-6-0.1-8.5,9.2-6.6,15.3
			c-0.3,1.6-0.9,2.8-2.4,2.7c-2.4-0.3-2.3-5.4-2.3-7.7c0-8.5,0.3-19.2,0.3-19.3c0-0.3-0.4-0.6-1.8-1c-0.9-0.2-1.3-0.3-1.6-0.3
			c-0.5,0-0.9,0.4-0.9,0.9v18.6c-0.1,1.9,0,3.4,0.2,4.7c-0.4,2.2-1.2,4.1-2.8,4c-2.4-0.3-2.3-5.4-2.3-7.7c0-8.5,0.3-19.2,0.3-19.3
			c0-0.3-0.4-0.6-1.8-1c-0.9-0.2-1.3-0.3-1.6-0.3c-0.5,0-0.9,0.4-0.9,0.9v18.9c-0.3,9.1,2.9,10.7,4.7,11c0.9,0.1,4.1-0.2,5.1-3.8
			c1,2.9,2.7,3.7,3.9,3.8c0.7,0.1,3.7-0.2,4.9-3.3c1,1.7,2.4,2.9,4.4,3.2c2.9,0.4,5-1,6.4-3.3c0.7,2.4,1.9,3.1,3.2,3.3
			c1,0.2,3.1,0,4.4-2.1v1c0,0.3,0.1,0.6,1.6,1c0.9,0.2,1.6,0.3,1.8,0.3c0.5,0,0.9-0.4,0.9-0.9c0,0,0-2.1,0-5.2
			c0-2.2,1.4-10.3,4.8-10.6c0.2,0,0.7,0,1,0.1C103.3,30.7,103.2,25,99.7,25.5z M78.5,43.5c-5.8-0.1-4.5-14.8,0.1-14.8
			c2.2,0,3.3,3.2,3.3,7.1C82,39.7,81.2,43.6,78.5,43.5z M44.2,25.5c-8.7-0.1-10.1,19.1-1.3,20.5C53.8,47.8,54.7,25.6,44.2,25.5z
			 M45,43.5c-5.8-0.1-4.2-14.3,0.1-14.8C50,28.2,50.7,43.6,45,43.5z M33.2,15.6c-0.9-0.2-1.3-0.3-1.5-0.3c-0.5,0-0.9,0.4-0.9,0.9
			v12.2c-2.7-0.1-5.1,0-7.8,0.4c0,0,0-12.2,0-12.3c0-0.3-0.4-0.6-1.8-1c-0.9-0.2-1.3-0.3-1.6-0.3c-0.5,0-0.9,0.4-0.9,0.9v13.5
			c-0.3,0.1-1.7,0.4-2.4,0.6c-0.8,0.3-0.9,0.8-0.6,1.6c0.4,1.3,1.8,2.8,2.6,2.4c0.2-0.1,0.4-0.1,0.4-0.1c0,3.3,0,5.6,0,5.6l0,5.2
			c0,0.3,0.1,0.6,1.6,0.9c0.9,0.2,1.6,0.3,1.8,0.3c0.5,0,0.9-0.4,0.9-0.9V32.9c3.2-0.7,5.7-0.9,7.8-1.1V45c0,0.3,0.1,0.6,1.6,1
			c0.9,0.2,1.6,0.3,1.8,0.3c0.5,0,0.9-0.4,0.9-0.9c0,0,0-28.8,0-28.8C35,16.2,34.6,16,33.2,15.6z"/>
	</g>
</g>
<g>
	<g>
		<path class="st1" d="M129.4,39.3c-1.7-0.3-3.3,1.1-3.6,2.9c-0.3,1.8,0.8,3.5,2.5,3.8c1.7,0.3,3.3-1,3.6-2.8
			C132.2,41.5,131.1,39.6,129.4,39.3z"/>
	</g>
</g>
</svg>
